<svg xmlns="http://www.w3.org/2000/svg" width="169.814" height="172.228" viewBox="0 0 169.814 172.228"><path id="Subtraction_9" data-name="Subtraction 9" d="M94.6 171.727h-.341a82.976 82.976 0 0 1-33.893-7.671 86.765 86.765 0 0 1-29.954-22.683l-.093-.11-.032-.038-.073-.087-.054-.063-.126-.15-.125-.149-.124-.149-.122-.146-.061-.074-.058-.07-.006-.008-.115-.14-.089-.109-.026-.032-.008-.009-.117-.143v-.012l-.057-.07-.057-.07-.007-.009-.017-.021-.094-.116-.008-.01-.008-.01a6.974 6.974 0 0 1-.107-.134v-.006l-.011-.013-.037-.047-.07-.088-.015-.018a3.855 3.855 0 0 0-.079-.1l-.029-.036-.014-.018-.047-.059-.007-.008-.054-.068-.009-.011-.009-.011-.082-.1-.021-.027-.015-.02-.1-.131-.006-.008-.014-.017-.1-.131-.01-.013-.009-.012-.1-.131-.009-.011-.011-.013-.05-.065-.05-.065-.011-.014-.01-.014-.05-.064-.05-.064-.01-.014-.01-.014-.027-.035-.072-.094-.021-.027-.1-.13-.01-.014-.01-.013-.049-.065-.046-.061-.012-.015-.012-.015-.045-.059-.048-.063-.012-.016-.012-.016-.047-.062-.048-.063-.012-.017-.014-.019-.092-.122-.013-.018-.015-.019-.09-.122-.018-.024-.012-.017-.059-.079-.03-.04-.03-.04-.088-.121-.012-.016-.017-.022-.045-.061-.042-.058-.069-.073-.013-.017-.045-.063-.042-.064-.014-.019-.017-.022-.041-.059-.044-.06-.016-.022-.016-.023a4.991 4.991 0 0 1-.085-.117l-.032-.044-.084-.117-.025-.034-.009-.013-.022-.031-.059-.083-.018-.025-.018-.025-.08-.112-.023-.033-.013-.019-.052-.074-.026-.037-.02-.028-.02-.028-.012-.018-.063-.09-.027-.038-.015-.021v-.005l-.068-.1-.023-.033-.021-.03-.037-.04-.037-.052-.02-.03-.02-.03-.037-.053-.037-.053-.019-.027-.019-.028-.057-.082-.019-.028-.039-.057-.037-.054-.034-.049-.032-.046-.01-.014-.017-.025-.054-.079-.043-.062-.034-.051-.036-.054-.009-.014-.032-.047-.072-.105-.019-.029-.021-.031-.061-.09-.012-.017-.041-.061c-.022-.033-.047-.071-.069-.1l-.022-.033-.023-.034-.034-.05-.034-.05-.046-.069-.065-.1-.023-.035-.023-.035-.033-.049-.033-.049-.031-.048-.014-.021-.033-.049-.033-.049-.013-.019-.032-.05-.066-.1-.022-.034-.024-.036-.065-.1-.031-.049-.016-.024-.015-.023-.048-.073-.05-.078-.059-.09-.052-.082-.056-.087-.036-.056-.021-.033-.051-.078-.018-.028-.038-.06-.056-.087-.053-.083-.028-.045-.027-.043-.033-.052-.025-.039-.047-.074-.029-.046-.032-.051-.047-.074-.062-.1-.023-.037-.023-.037-.052-.084-.009-.015-.024-.037-.033-.057-.025-.041-.034-.056-.048-.077-.028-.045-.031-.05-.049-.078-.03-.05-.029-.048-.036-.058-.01-.017-.038-.061-.023-.038-.023-.038-.023-.038-.04-.066-.018-.029-.049-.081-.021-.035-.035-.059-.049-.081-.055-.093a2.324 2.324 0 0 1-.05-.084l-.029-.048-.029-.048-.021-.036-.025-.042-.06-.1-.044-.074-.064-.108-.02-.034-.02-.034c-.021-.034-.043-.073-.063-.108l-.04-.069a1.955 1.955 0 0 0-.061-.1v-.006l-.039-.067-.032-.055-.031-.054-.039-.067-.064-.112-.008-.014-.031-.053-.029-.052-.031-.055-.041-.072-.023-.04-.041-.071-.039-.067a3.087 3.087 0 0 0-.065-.114l-.018-.032-.018-.032-.031-.055-.031-.055-.02-.036-.02-.036v-.005l-.054-.1-.022-.039-.023-.04-.028-.05-.029-.051-.044-.078-.03-.055-.029-.052-.041-.073-.033-.06-.032-.058-.016-.029-.018-.032-.03-.054-.043-.08-.026-.047-.034-.062-.035-.063-.018-.034-.013-.024-.061-.111-.009-.017-.014-.027-.014-.027-.018-.034-.051-.094a1.49 1.49 0 0 1-.03-.055l-.032-.06v-.006l-.036-.067-.013-.025-.014-.026-.08-.149-.006-.011-.012-.022-.038-.072-.038-.072-.011-.02-.011-.02-.034-.064-.034-.064-.008-.015-.022-.041-.019-.037-.045-.086-.017-.031-.017-.031-.047-.072-.039-.076-.012-.023-.006-.012-.055-.106-.039-.074-.046-.088-.044-.085v-.018l-.023-.045-.049-.1-.015-.029-.009-.018-.017-.032c-.021-.041-.043-.082-.063-.124l-.009-.017-.006-.012-.078-.154-.008-.016-.009-.016-.04-.081-.041-.081-.008-.015-.005-.01a5.364 5.364 0 0 0-.054-.107l-.134-.268a51.273 51.273 0 0 1-4.257-11.9c-1.34-6.146-2.549-9.455-6.566-14.04a31.409 31.409 0 0 1-5.522-8.741A24.034 24.034 0 0 1 .5 79.725 25.419 25.419 0 0 1 3.668 67.65a35.378 35.378 0 0 1 8.264-10.026 49.563 49.563 0 0 1 10.844-6.964 59.513 59.513 0 0 1 13.095-4.427c-.1-1.548-.146-2.81-.146-3.97a50.462 50.462 0 0 1 2.935-17.447 38.648 38.648 0 0 1 9.309-14.554 34.085 34.085 0 0 1 11.367-7.119A39.388 39.388 0 0 1 73.346.501h.223a32.716 32.716 0 0 1 15.159 3.68 30.276 30.276 0 0 1 12.166 11.9l.111.193.036.064.072.128c.9 1.6 1.8 3.158 2.672 4.622a37.757 37.757 0 0 1 18.468 4.627 41.138 41.138 0 0 1 15.021 14.762 64.359 64.359 0 0 1 4.451 8.638c.147-.007.295-.007.438-.007.366 0 .739-.009 1.106-.009a41.046 41.046 0 0 1 10.568 1.253 23.241 23.241 0 0 1 8.274 3.961c4.72 3.644 7.211 9.279 7.2 16.3v.084a47.068 47.068 0 0 1-2.419 13.846 166.723 166.723 0 0 1-8.862 22.252c-4.751 9.79-6.1 14.7-8.335 22.841a698.82 698.82 0 0 1-1.534 5.522 49.284 49.284 0 0 1-6.178 13.641 46.425 46.425 0 0 1-9.483 10.511l-.061.049-.059.048-.047.038-.053.043-.019.016a49.517 49.517 0 0 1-4.472 3.211l-.061.039-.068.043-.128.081-.053.034c-.152.1-.309.193-.465.289h-.006l-.127.077-.079.048-.048.029-.063.038-.062.037h-.006l-.08.048-.041.024-.013.007-.122.073h-.007l-.063.037-.06.036-.01.006-.124.072h-.007l-.123.072h-.01l-.127.074-.066.038-.064.037-.064.037-.062.035-.011.006-.12.068-.01.006-.124.07h-.006l-.112.063-.011.006-.014.008-.062.035-.061.034-.011.005-.063.035-.057.032-.017.01-.039.021-.081.044-.012.006-.121.066-.017.009-.119.064h-.013l-.061.032-.061.032h-.017l-.081.043-.041.022h-.012l-.062.032-.062.032-.014.008-.123.065-.013.006-.061.032-.06.031h-.009l-.01.005-.079.041-.04.021h-.006l-.01.005-.08.041-.04.02h-.018l-.059.03-.062.031h-.014l-.117.06-.011.006-.014.007-.059.029-.059.029h-.006l-.011.006-.12.059h-.009l-.01.005-.06.03h-.005l-.055.027h-.016l-.119.059-.012.006-.012.006-.059.029h-.007l-.053.026h-.009l-.081.146-.062.03-.014.007h-.007l-.054.026-.059.028-.022.01-.116.056-.023.012-.062.029-.061.029h-.007l-.131.061-.013.006-.079.037h-.006l-.042.02-.013.006-.125.058h-.006l-.01.005-.126.058-.013.005-.061.028-.064.029-.021.009-.122.056-.014.006-.063.028-.063.028-.012.005h-.007l-.133.06-.133.06h-.005l-.054.024-.077.035h-.007l-.059.026h-.005l-.064.028-.017.008-.074.032-.055.024-.139.059h-.014l-.065.028-.064.028h-.005l-.135.058h-.018l-.271.114-.141.058-.141.058h-.005a58.657 58.657 0 0 1-5.9 2.05l-.017.005-.285.082-.148.041h-.006l-.094.027-.04.011-.021.006-.074.02-.071.02-.058.016-.086.024h-.014l-.07.019-.07.019h-.011l-.137.037h-.018l-.068.018h-.007l-.071.019-.076.02-.074.02h-.006l-.124.033-.024.006-.075.02-.073.019h-.007l-.294.075h-.012l-.069.017-.07.017h-.013l-.025.006-.115.029h-.019l-.07.017-.069.017h-.008l-.143.034h-.019l-.1.025-.032.007h-.019l-.133.031h-.022l-.106.025-.036.008h-.006l-.073.017-.073.017h-.008l-.151.035-.15.034h-.011l-.148.033-.029.006-.122.027h-.012l-.062.014-.081.018h-.013l-.064.014h-.007l-.072.015h-.011l-.618.13-.312.063-.31.06h-.01l-.079.016-.072.014-.141.027h-.017c-.3.056-.6.112-.944.171a70.569 70.569 0 0 1-12.046 1.131zm48.456-40.087a126.68 126.68 0 0 1-8.121 9.885 100.907 100.907 0 0 1-14.042 12.821 46.136 46.136 0 0 1-7.38 6.3 35.7 35.7 0 0 1-9.041 4.51 55.691 55.691 0 0 0 13.153-3.672 45.723 45.723 0 0 0 11.191-6.681 41.748 41.748 0 0 0 14.238-23.163zm-90.911 3.663a38.109 38.109 0 0 0 3.224 11.1 24.626 24.626 0 0 0 5.638 7.533 33.215 33.215 0 0 0 9.584 5.86 42.158 42.158 0 0 0 12.355 3.115 47.824 47.824 0 0 1-5.456-3.381c-6.023-4.3-11.78-10.095-17.159-15.667-1.244-1.294-2.474-2.585-3.776-3.951-1.432-1.5-2.914-3.058-4.41-4.611zm24.225-84.7a172.866 172.866 0 0 0-19.993 1.291c-9.451 1.115-13.85 3.582-13.841 7.765a8.275 8.275 0 0 0 .485 2.618c.433 1.285.84 2.552 1.208 3.764a140.465 140.465 0 0 1 5.092 24.608c.911 7.644 1.225 14.868 1.429 21.537q.043 1.464.081 2.89c.064 2.321.124 4.512.206 6.656a372.386 372.386 0 0 1 6.58 6.667c1.561 1.621 3.089 3.223 4.566 4.772 7.6 7.974 14.169 14.86 20.372 19.247l.291.205.045.031.045.031c4.924 3.427 9.155 5.036 13.315 5.063h.136c3.965-.01 7.855-1.385 12.241-4.327a36.519 36.519 0 0 0 8.826-8.464 50.927 50.927 0 0 0 6.4-11.441 75.582 75.582 0 0 0 5.217-28.248v-.236c.01-12.279-2.588-24.476-7.316-34.344a29.155 29.155 0 0 0-7.231-9.549 35.913 35.913 0 0 0-10.387-6.166c-5.959-2.372-13.337-3.8-21.922-4.229a115.842 115.842 0 0 0-5.79-.142zm-56.829 56.608a43.5 43.5 0 0 0 4.341 13.75 81.074 81.074 0 0 0 33.957 35.312 28.324 28.324 0 0 1-5.961-8.162c-2.219-4.573-3.509-9.934-4.181-17.382-13.455-13.595-22.115-19.71-28.156-23.518zm83.268-80.3a51.272 51.272 0 0 0-13.653 2.224 82.75 82.75 0 0 0-14.254 5.8c-2.914 1.492-4.589 3.125-4.6 4.481a1.554 1.554 0 0 0 .488 1.131c.863.868 2.787 1.326 5.564 1.326h.011c12.409.008 22.546 1.642 30.991 4.995a44.187 44.187 0 0 1 12.892 7.7 37.79 37.79 0 0 1 9.37 12.35 82.038 82.038 0 0 1 6.121 18.329 95.868 95.868 0 0 1 2.051 19.785 92.379 92.379 0 0 1-1.91 18.756 72.472 72.472 0 0 1-5.873 17.3c.724-.751 1.4-1.465 2.056-2.183a129.2 129.2 0 0 0 12.286-15.868c.012-.177.026-.353.04-.529.023-.282.046-.572.061-.866.262-5.346.394-10.612.394-15.653.008-22.219-2.653-40.131-7.91-53.238a35.933 35.933 0 0 1-11.274-3.119 39.582 39.582 0 0 1-9.56-6.359c-4.518-4-8.74-9.2-13.288-16.357zM38.944 62.255a96.733 96.733 0 0 0-9.4 11.149 64.143 64.143 0 0 0-6.456 11.156 45.456 45.456 0 0 0-3.526 12.053 53.244 53.244 0 0 0 4.2 2.93 149.873 149.873 0 0 1 23.275 18.323l-.061-2.138c-.207-7.293-.442-15.554-1.457-24.263a134.953 134.953 0 0 0-6.168-27.944 26.914 26.914 0 0 1-.3-.943zm104.3-9.277a107.279 107.279 0 0 1 4.668 17.78 178.925 178.925 0 0 1 2.44 22.355l.023.431c.324 5.561 1.378 8.513 3.048 8.535h.062c1.625-.049 3.76-2.874 5.712-7.557l.076-.184.045-.109.014-.035.014-.035.1-.255v-.006l.01-.025.016-.04.013-.033v-.01l.033-.085a158.964 158.964 0 0 0 3.658-10.334 42.713 42.713 0 0 0 2.244-12.675 19.6 19.6 0 0 0-1.5-7.935 13.806 13.806 0 0 0-4.215-5.386l-.021-.016-.1-.079-.135-.1a19.584 19.584 0 0 0-6.8-3.12 37.116 37.116 0 0 0-9.3-1.078h-.109zM37.032 54.91a45.894 45.894 0 0 0-19.419 9.347c-5.4 4.635-8.376 10.106-8.384 15.405v.062c.012 4.21 1.788 8.331 5.271 12.249a54.182 54.182 0 0 1 4.067-11.508A71.672 71.672 0 0 1 24.8 70.026a107.912 107.912 0 0 1 12.4-14.27 30.166 30.166 0 0 1-.105-.522c-.021-.11-.041-.217-.063-.324zm70.546-27.78a67.414 67.414 0 0 0 11.092 13.238 36.841 36.841 0 0 0 7.669 5.287 30.862 30.862 0 0 0 8.753 2.916 53.352 53.352 0 0 0-2.758-5.012c-6.253-9.923-14.351-15.298-24.756-16.429zM73.276 4.385a35.089 35.089 0 0 0-12.569 2.388 29.817 29.817 0 0 0-10.033 6.266A34.819 34.819 0 0 0 42.3 26.158a46.732 46.732 0 0 0-2.7 16.1c0 .966.033 2 .1 3.253 4.02-.684 7.624-1.239 11.016-1.7a128.209 128.209 0 0 1 23.852-15.23c8.7-4.185 17.046-6.645 24.814-7.313l-.216-.375v-.008c-.474-.821-.964-1.67-1.443-2.524a26.717 26.717 0 0 0-10.76-10.732 28.88 28.88 0 0 0-13.617-3.244z" fill="#ffff" stroke="rgba(255,255,255,0)" stroke-width="1"/></svg>